<mxfile host="app.diagrams.net" modified="2023-11-12T22:03:01.710Z" agent="Mozilla/5.0 (Windows NT 10.0; Win64; x64) AppleWebKit/537.36 (KHTML, like Gecko) Chrome/116.0.0.0 Safari/537.36 OPR/102.0.0.0" etag="lLGVloFlcPyhyIEb_Wzu" version="22.1.0" type="google">
  <diagram name="Página-1" id="YVKr_0lEt1WaLc95vMCl">
    <mxGraphModel grid="0" page="1" gridSize="10" guides="1" tooltips="1" connect="1" arrows="1" fold="1" pageScale="1" pageWidth="850" pageHeight="1100" math="0" shadow="0">
      <root>
        <mxCell id="0" />
        <mxCell id="1" parent="0" />
        <mxCell id="OUyWJckLoC5J6UXQZod1-1" value="&lt;font style=&quot;font-size: 19px;&quot;&gt;Iniciar Programa&lt;/font&gt;" style="rounded=0;whiteSpace=wrap;html=1;fillColor=none;" vertex="1" parent="1">
          <mxGeometry x="10" y="210" width="120" height="60" as="geometry" />
        </mxCell>
        <mxCell id="OUyWJckLoC5J6UXQZod1-2" value="" style="endArrow=none;html=1;rounded=0;exitX=1;exitY=0.5;exitDx=0;exitDy=0;" edge="1" parent="1" source="OUyWJckLoC5J6UXQZod1-1" target="OUyWJckLoC5J6UXQZod1-3">
          <mxGeometry width="50" height="50" relative="1" as="geometry">
            <mxPoint x="400" y="280" as="sourcePoint" />
            <mxPoint x="200" y="240" as="targetPoint" />
          </mxGeometry>
        </mxCell>
        <mxCell id="OUyWJckLoC5J6UXQZod1-3" value="&lt;font style=&quot;font-size: 18px;&quot;&gt;Menu Principal&lt;/font&gt;" style="ellipse;whiteSpace=wrap;html=1;aspect=fixed;fillColor=none;" vertex="1" parent="1">
          <mxGeometry x="190" y="200" width="80" height="80" as="geometry" />
        </mxCell>
        <mxCell id="OUyWJckLoC5J6UXQZod1-4" value="" style="endArrow=none;html=1;rounded=0;exitX=0.5;exitY=0;exitDx=0;exitDy=0;" edge="1" parent="1" source="OUyWJckLoC5J6UXQZod1-3" target="OUyWJckLoC5J6UXQZod1-5">
          <mxGeometry width="50" height="50" relative="1" as="geometry">
            <mxPoint x="400" y="270" as="sourcePoint" />
            <mxPoint x="230" y="160" as="targetPoint" />
          </mxGeometry>
        </mxCell>
        <mxCell id="OUyWJckLoC5J6UXQZod1-5" value="&lt;font style=&quot;font-size: 20px;&quot;&gt;Cerrar Programa&lt;/font&gt;" style="rounded=0;whiteSpace=wrap;html=1;fillColor=none;" vertex="1" parent="1">
          <mxGeometry x="170" y="110" width="120" height="60" as="geometry" />
        </mxCell>
        <mxCell id="OUyWJckLoC5J6UXQZod1-6" value="" style="endArrow=none;html=1;rounded=0;exitX=1;exitY=0.5;exitDx=0;exitDy=0;" edge="1" parent="1" source="OUyWJckLoC5J6UXQZod1-3" target="OUyWJckLoC5J6UXQZod1-7">
          <mxGeometry width="50" height="50" relative="1" as="geometry">
            <mxPoint x="400" y="260" as="sourcePoint" />
            <mxPoint x="340" y="240" as="targetPoint" />
          </mxGeometry>
        </mxCell>
        <mxCell id="OUyWJckLoC5J6UXQZod1-7" value="&lt;font style=&quot;font-size: 18px;&quot;&gt;Ingresar&lt;/font&gt;" style="ellipse;whiteSpace=wrap;html=1;aspect=fixed;fillColor=none;" vertex="1" parent="1">
          <mxGeometry x="310" y="200" width="80" height="80" as="geometry" />
        </mxCell>
        <mxCell id="OUyWJckLoC5J6UXQZod1-8" value="" style="endArrow=none;html=1;rounded=0;exitX=1;exitY=0.5;exitDx=0;exitDy=0;" edge="1" parent="1" source="OUyWJckLoC5J6UXQZod1-7" target="OUyWJckLoC5J6UXQZod1-9">
          <mxGeometry width="50" height="50" relative="1" as="geometry">
            <mxPoint x="400" y="250" as="sourcePoint" />
            <mxPoint x="450" y="240" as="targetPoint" />
          </mxGeometry>
        </mxCell>
        <mxCell id="OUyWJckLoC5J6UXQZod1-9" value="&lt;font style=&quot;font-size: 21px;&quot;&gt;Log in&lt;/font&gt;" style="ellipse;whiteSpace=wrap;html=1;aspect=fixed;fillColor=none;" vertex="1" parent="1">
          <mxGeometry x="410" y="200" width="80" height="80" as="geometry" />
        </mxCell>
        <mxCell id="OUyWJckLoC5J6UXQZod1-10" value="" style="endArrow=none;html=1;rounded=0;exitX=1;exitY=0.5;exitDx=0;exitDy=0;" edge="1" parent="1" source="OUyWJckLoC5J6UXQZod1-9" target="OUyWJckLoC5J6UXQZod1-11">
          <mxGeometry width="50" height="50" relative="1" as="geometry">
            <mxPoint x="450" y="250" as="sourcePoint" />
            <mxPoint x="530" y="240" as="targetPoint" />
          </mxGeometry>
        </mxCell>
        <mxCell id="OUyWJckLoC5J6UXQZod1-11" value="&lt;font style=&quot;font-size: 20px;&quot;&gt;Elegir usuario&lt;/font&gt;" style="ellipse;whiteSpace=wrap;html=1;aspect=fixed;fillColor=none;" vertex="1" parent="1">
          <mxGeometry x="520" y="200" width="80" height="80" as="geometry" />
        </mxCell>
        <mxCell id="OUyWJckLoC5J6UXQZod1-12" value="" style="endArrow=none;html=1;rounded=0;entryX=1;entryY=0;entryDx=0;entryDy=0;exitX=0;exitY=1;exitDx=0;exitDy=0;" edge="1" parent="1" source="OUyWJckLoC5J6UXQZod1-13" target="OUyWJckLoC5J6UXQZod1-11">
          <mxGeometry width="50" height="50" relative="1" as="geometry">
            <mxPoint x="630" y="170" as="sourcePoint" />
            <mxPoint x="500" y="180" as="targetPoint" />
          </mxGeometry>
        </mxCell>
        <mxCell id="OUyWJckLoC5J6UXQZod1-13" value="&lt;font style=&quot;font-size: 16px;&quot;&gt;Contraseña&lt;br&gt;Incorrecta&lt;/font&gt;" style="ellipse;whiteSpace=wrap;html=1;aspect=fixed;fillColor=none;" vertex="1" parent="1">
          <mxGeometry x="600" y="100" width="80" height="80" as="geometry" />
        </mxCell>
        <mxCell id="OUyWJckLoC5J6UXQZod1-14" value="" style="endArrow=none;html=1;rounded=0;entryX=1;entryY=0;entryDx=0;entryDy=0;exitX=0;exitY=0.5;exitDx=0;exitDy=0;" edge="1" parent="1" source="OUyWJckLoC5J6UXQZod1-15" target="OUyWJckLoC5J6UXQZod1-13">
          <mxGeometry width="50" height="50" relative="1" as="geometry">
            <mxPoint x="720" y="80" as="sourcePoint" />
            <mxPoint x="530" y="170" as="targetPoint" />
          </mxGeometry>
        </mxCell>
        <mxCell id="OUyWJckLoC5J6UXQZod1-15" value="&lt;font style=&quot;font-size: 16px;&quot;&gt;Ingresar contraseña de nuevo&lt;/font&gt;" style="ellipse;whiteSpace=wrap;html=1;aspect=fixed;fillColor=none;" vertex="1" parent="1">
          <mxGeometry x="700" y="30" width="80" height="80" as="geometry" />
        </mxCell>
        <mxCell id="OUyWJckLoC5J6UXQZod1-16" value="" style="endArrow=none;html=1;rounded=0;entryX=0;entryY=0;entryDx=0;entryDy=0;exitX=1;exitY=0.5;exitDx=0;exitDy=0;" edge="1" parent="1" source="OUyWJckLoC5J6UXQZod1-17" target="OUyWJckLoC5J6UXQZod1-13">
          <mxGeometry width="50" height="50" relative="1" as="geometry">
            <mxPoint x="540" y="80" as="sourcePoint" />
            <mxPoint x="530" y="170" as="targetPoint" />
          </mxGeometry>
        </mxCell>
        <mxCell id="OUyWJckLoC5J6UXQZod1-17" value="&lt;font style=&quot;font-size: 17px;&quot;&gt;Solicitar asistencia&lt;/font&gt;" style="ellipse;whiteSpace=wrap;html=1;aspect=fixed;fillColor=none;" vertex="1" parent="1">
          <mxGeometry x="490" y="50" width="80" height="80" as="geometry" />
        </mxCell>
        <mxCell id="OUyWJckLoC5J6UXQZod1-18" value="" style="endArrow=none;html=1;rounded=0;entryX=0;entryY=0.5;entryDx=0;entryDy=0;exitX=1;exitY=0.5;exitDx=0;exitDy=0;" edge="1" parent="1" source="OUyWJckLoC5J6UXQZod1-19" target="OUyWJckLoC5J6UXQZod1-17">
          <mxGeometry width="50" height="50" relative="1" as="geometry">
            <mxPoint x="450" y="90" as="sourcePoint" />
            <mxPoint x="530" y="160" as="targetPoint" />
          </mxGeometry>
        </mxCell>
        <mxCell id="OUyWJckLoC5J6UXQZod1-19" value="&lt;font style=&quot;font-size: 16px;&quot;&gt;Asistente dice contraseña&lt;/font&gt;" style="rounded=0;whiteSpace=wrap;html=1;fillColor=none;" vertex="1" parent="1">
          <mxGeometry x="360" y="65" width="110" height="50" as="geometry" />
        </mxCell>
        <mxCell id="OUyWJckLoC5J6UXQZod1-21" value="" style="endArrow=none;html=1;rounded=0;entryX=1;entryY=1;entryDx=0;entryDy=0;exitX=0;exitY=0.5;exitDx=0;exitDy=0;" edge="1" parent="1" source="OUyWJckLoC5J6UXQZod1-22" target="OUyWJckLoC5J6UXQZod1-11">
          <mxGeometry width="50" height="50" relative="1" as="geometry">
            <mxPoint x="640" y="310" as="sourcePoint" />
            <mxPoint x="690" y="290" as="targetPoint" />
          </mxGeometry>
        </mxCell>
        <mxCell id="OUyWJckLoC5J6UXQZod1-22" value="&lt;font style=&quot;font-size: 16px;&quot;&gt;Contraseña&lt;br&gt;correcta&lt;/font&gt;" style="ellipse;whiteSpace=wrap;html=1;aspect=fixed;fillColor=none;" vertex="1" parent="1">
          <mxGeometry x="620" y="280" width="80" height="80" as="geometry" />
        </mxCell>
        <mxCell id="OUyWJckLoC5J6UXQZod1-25" value="" style="endArrow=none;html=1;rounded=0;exitX=1;exitY=0.5;exitDx=0;exitDy=0;entryX=0;entryY=0.5;entryDx=0;entryDy=0;" edge="1" parent="1" source="OUyWJckLoC5J6UXQZod1-22" target="OUyWJckLoC5J6UXQZod1-26">
          <mxGeometry width="50" height="50" relative="1" as="geometry">
            <mxPoint x="829.9999999999998" y="320" as="sourcePoint" />
            <mxPoint x="910" y="320" as="targetPoint" />
          </mxGeometry>
        </mxCell>
        <mxCell id="OUyWJckLoC5J6UXQZod1-26" value="&lt;font style=&quot;font-size: 20px;&quot;&gt;Pantalla&lt;/font&gt;&lt;br style=&quot;border-color: var(--border-color); font-size: 20px;&quot;&gt;&lt;span style=&quot;font-size: 20px;&quot;&gt;Puntaje&lt;/span&gt;" style="ellipse;whiteSpace=wrap;html=1;aspect=fixed;fillColor=none;" vertex="1" parent="1">
          <mxGeometry x="750" y="280" width="80" height="80" as="geometry" />
        </mxCell>
        <mxCell id="OUyWJckLoC5J6UXQZod1-27" value="" style="endArrow=none;html=1;rounded=0;entryX=1;entryY=0;entryDx=0;entryDy=0;exitX=0;exitY=1;exitDx=0;exitDy=0;" edge="1" parent="1" source="OUyWJckLoC5J6UXQZod1-33" target="OUyWJckLoC5J6UXQZod1-26">
          <mxGeometry width="50" height="50" relative="1" as="geometry">
            <mxPoint x="1000" y="220" as="sourcePoint" />
            <mxPoint x="900" y="280" as="targetPoint" />
          </mxGeometry>
        </mxCell>
        <mxCell id="OUyWJckLoC5J6UXQZod1-28" value="" style="endArrow=none;html=1;rounded=0;entryX=0.5;entryY=1;entryDx=0;entryDy=0;exitX=0.25;exitY=0;exitDx=0;exitDy=0;" edge="1" parent="1" source="OUyWJckLoC5J6UXQZod1-32" target="OUyWJckLoC5J6UXQZod1-26">
          <mxGeometry width="50" height="50" relative="1" as="geometry">
            <mxPoint x="1050" y="320" as="sourcePoint" />
            <mxPoint x="900" y="280" as="targetPoint" />
          </mxGeometry>
        </mxCell>
        <mxCell id="OUyWJckLoC5J6UXQZod1-29" value="" style="endArrow=none;html=1;rounded=0;entryX=0.5;entryY=0;entryDx=0;entryDy=0;exitX=0.5;exitY=1;exitDx=0;exitDy=0;" edge="1" parent="1" source="OUyWJckLoC5J6UXQZod1-34" target="OUyWJckLoC5J6UXQZod1-26">
          <mxGeometry width="50" height="50" relative="1" as="geometry">
            <mxPoint x="930" y="200" as="sourcePoint" />
            <mxPoint x="900" y="280" as="targetPoint" />
          </mxGeometry>
        </mxCell>
        <mxCell id="OUyWJckLoC5J6UXQZod1-30" value="" style="endArrow=none;html=1;rounded=0;entryX=0;entryY=1;entryDx=0;entryDy=0;exitX=0.5;exitY=0;exitDx=0;exitDy=0;" edge="1" parent="1" source="OUyWJckLoC5J6UXQZod1-31" target="OUyWJckLoC5J6UXQZod1-26">
          <mxGeometry width="50" height="50" relative="1" as="geometry">
            <mxPoint x="1040" y="370" as="sourcePoint" />
            <mxPoint x="900" y="280" as="targetPoint" />
          </mxGeometry>
        </mxCell>
        <mxCell id="OUyWJckLoC5J6UXQZod1-31" value="&lt;font style=&quot;font-size: 18px;&quot;&gt;Restar decimal&lt;/font&gt;" style="rounded=0;whiteSpace=wrap;html=1;fillColor=none;" vertex="1" parent="1">
          <mxGeometry x="690" y="410" width="80" height="50" as="geometry" />
        </mxCell>
        <mxCell id="OUyWJckLoC5J6UXQZod1-32" value="&lt;font style=&quot;font-size: 18px;&quot;&gt;Sumar decimal&lt;/font&gt;" style="rounded=0;whiteSpace=wrap;html=1;fillColor=none;" vertex="1" parent="1">
          <mxGeometry x="780" y="430" width="80" height="50" as="geometry" />
        </mxCell>
        <mxCell id="OUyWJckLoC5J6UXQZod1-33" value="&lt;font style=&quot;font-size: 18px;&quot;&gt;Restar&amp;nbsp;&lt;br&gt;Entero&lt;br&gt;&lt;/font&gt;" style="rounded=0;whiteSpace=wrap;html=1;fillColor=none;" vertex="1" parent="1">
          <mxGeometry x="850" y="210" width="80" height="50" as="geometry" />
        </mxCell>
        <mxCell id="OUyWJckLoC5J6UXQZod1-34" value="&lt;font style=&quot;font-size: 18px;&quot;&gt;Sumar&lt;br&gt;Entero&lt;br&gt;&lt;/font&gt;" style="rounded=0;whiteSpace=wrap;html=1;fillColor=none;" vertex="1" parent="1">
          <mxGeometry x="750" y="190" width="80" height="50" as="geometry" />
        </mxCell>
        <mxCell id="OUyWJckLoC5J6UXQZod1-35" value="" style="endArrow=none;html=1;rounded=0;entryX=1;entryY=0.5;entryDx=0;entryDy=0;exitX=0;exitY=0.5;exitDx=0;exitDy=0;" edge="1" parent="1" source="OUyWJckLoC5J6UXQZod1-40" target="OUyWJckLoC5J6UXQZod1-26">
          <mxGeometry width="50" height="50" relative="1" as="geometry">
            <mxPoint x="990" y="320" as="sourcePoint" />
            <mxPoint x="900" y="340" as="targetPoint" />
          </mxGeometry>
        </mxCell>
        <mxCell id="OUyWJckLoC5J6UXQZod1-40" value="&lt;span style=&quot;font-size: 17px;&quot;&gt;&lt;b&gt;Descalificar&lt;/b&gt;&lt;/span&gt;" style="rounded=0;whiteSpace=wrap;html=1;fillColor=none;" vertex="1" parent="1">
          <mxGeometry x="917" y="295" width="102" height="50" as="geometry" />
        </mxCell>
        <mxCell id="OUyWJckLoC5J6UXQZod1-55" value="" style="endArrow=none;html=1;rounded=0;entryX=1;entryY=1;entryDx=0;entryDy=0;exitX=0;exitY=0.5;exitDx=0;exitDy=0;" edge="1" parent="1" source="OUyWJckLoC5J6UXQZod1-56" target="OUyWJckLoC5J6UXQZod1-26">
          <mxGeometry width="50" height="50" relative="1" as="geometry">
            <mxPoint x="840" y="370" as="sourcePoint" />
            <mxPoint x="850" y="360" as="targetPoint" />
          </mxGeometry>
        </mxCell>
        <mxCell id="OUyWJckLoC5J6UXQZod1-56" value="&lt;font style=&quot;font-size: 18px;&quot;&gt;Enviar puntaje&lt;/font&gt;" style="rounded=0;whiteSpace=wrap;html=1;fillColor=none;" vertex="1" parent="1">
          <mxGeometry x="840" y="350" width="70" height="50" as="geometry" />
        </mxCell>
      </root>
    </mxGraphModel>
  </diagram>
</mxfile>
